<svg id="Capa_1" data-name="Capa 1" xmlns="http://www.w3.org/2000/svg" viewBox="0 0 792 612"><defs><style>.cls-1{fill:#209bab;}</style></defs><title>APLICACIONES</title><path class="cls-1" d="M631.61,601.13h-.18a17.73,17.73,0,0,1-18-17.6l-.77-112.65-33,44.42a28.81,28.81,0,0,1-47.94-2.51L464.26,398.65l-51,60.42a38.91,38.91,0,0,1-61.14-2.15l-49-67.16-50.25,67.75a36.73,36.73,0,0,1-9.37,9A35.74,35.74,0,0,1,199.72,463l-2-1.82.39,123.39a17.9,17.9,0,1,1-35.79.11l-.5-160A20,20,0,0,1,195.3,410.4l28.61,26.24L277,364.82a32.47,32.47,0,0,1,52.31.2L381,435.81a3,3,0,0,0,2.4,1.27,3,3,0,0,0,2.49-1.1l56.4-66.78a30.29,30.29,0,0,1,13.12-9.3,29.46,29.46,0,0,1,35.08,12.79l66.7,112.84,57.91-78a18.58,18.58,0,0,1,20.42-6.68h0a18.18,18.18,0,0,1,12.54,17.1l1.14,165.18A17.89,17.89,0,0,1,631.61,601.13Z"/><path class="cls-1" d="M512.93,189.13,336.1,187.89a4.88,4.88,0,0,1-4.29-7.15l80.31-153a3.44,3.44,0,0,1,6-.13L513,191.28"/><path class="cls-1" d="M512.8,207,336,205.78a22.78,22.78,0,0,1-20-33.36l80.31-153A21.34,21.34,0,0,1,414.72,8h.09A21.34,21.34,0,0,1,433.63,18.6l94.8,163.71-15.51,9ZM357.57,170.14l123,.87L415.79,59.21Z"/><line class="cls-1" x1="412.1" y1="438.74" x2="412.55" y2="583.92"/><path class="cls-1" d="M412.86,601.81h-.25A17.9,17.9,0,0,1,394.66,584l-.45-145.19a17.9,17.9,0,0,1,35.79-.11l.45,145.19A17.88,17.88,0,0,1,412.86,601.81Z"/><line class="cls-1" x1="619.37" y1="366.19" x2="417.62" y2="22.15"/><path class="cls-1" d="M619.68,384.09a17.9,17.9,0,0,1-15.75-8.85l-201.75-344A17.9,17.9,0,0,1,433.05,13.1l201.76,344a17.91,17.91,0,0,1-15.13,26.95Z"/><line class="cls-1" x1="268.04" y1="268.28" x2="181.56" y2="417.92"/><path class="cls-1" d="M181.84,435.82A17.9,17.9,0,0,1,166.06,409l86.49-149.65a17.9,17.9,0,0,1,31,17.91L197.05,426.88A17.89,17.89,0,0,1,181.84,435.82Z"/></svg>