<svg id="Capa_1" data-name="Capa 1" xmlns="http://www.w3.org/2000/svg" viewBox="0 0 792 612"><defs><style>.cls-1{fill:#209bab;}.cls-2{fill:#1d1d1b;}.cls-3{fill:#fff;}.cls-4{fill:#9d9d9c;}</style></defs><title>APLICACIONES</title><path class="cls-1" d="M490.83,162.14l.07-46.45c0-4,.9-6.91,2.69-8.89a9,9,0,0,1,7-3,9.21,9.21,0,0,1,7.21,3c1.77,2,2.66,4.94,2.65,8.9l-.07,47.49a43,43,0,0,0,1.79,13.54,15.65,15.65,0,0,0,6.41,8.45q4.6,3,12.91,3,11.46,0,16.21-6.07t4.77-18.47l.08-47.89q0-6,2.65-8.92a8.93,8.93,0,0,1,7-2.92,9.29,9.29,0,0,1,7.14,2.94c1.82,2,2.73,4.93,2.72,8.93l-.07,46.44a69.05,69.05,0,0,1-2.23,18.91,29.17,29.17,0,0,1-8.36,13.29,32.41,32.41,0,0,1-12.26,7.1,53.84,53.84,0,0,1-16.34,2.21,67.32,67.32,0,0,1-19.17-2.43,30.62,30.62,0,0,1-13.1-7.47A29.9,29.9,0,0,1,493.18,181,65.44,65.44,0,0,1,490.83,162.14Z"/><path class="cls-1" d="M613.38,115.75l37.53,57,.09-57.45c0-3.73.81-6.53,2.41-8.39a8.09,8.09,0,0,1,6.5-2.79,8.39,8.39,0,0,1,6.65,2.8q2.43,2.8,2.42,8.41l-.12,75.95q0,12.72-10.56,12.7a13.86,13.86,0,0,1-4.74-.76,12.15,12.15,0,0,1-3.95-2.41,23.85,23.85,0,0,1-3.42-3.86q-1.58-2.2-3.15-4.52L606.43,136.1l-.09,56.59q0,5.52-2.58,8.36a8.53,8.53,0,0,1-6.59,2.82,8.35,8.35,0,0,1-6.65-2.88q-2.5-2.87-2.49-8.33l.11-74.51a21.09,21.09,0,0,1,1.07-7.44,10.55,10.55,0,0,1,4.16-4.84,11.3,11.3,0,0,1,6.26-1.87,10.29,10.29,0,0,1,7.8,3.18,23.22,23.22,0,0,1,2.89,3.76C611.31,112.47,612.33,114.08,613.38,115.75Z"/><path class="cls-1" d="M727.5,104.2q15,0,25.78,6.13a39.54,39.54,0,0,1,16.28,17.35q5.52,11.25,5.5,26.39A64.84,64.84,0,0,1,772,174.43a44.11,44.11,0,0,1-9.11,15.86A39.75,39.75,0,0,1,748,200.54a58.63,58.63,0,0,1-40.51-.16,40.19,40.19,0,0,1-14.94-10.33,44,44,0,0,1-9-16,64.44,64.44,0,0,1-3-20.23,62.42,62.42,0,0,1,3.23-20.42,43.86,43.86,0,0,1,9.28-15.8,40,40,0,0,1,14.77-10A53.09,53.09,0,0,1,727.5,104.2Zm27.73,49.71a45.41,45.41,0,0,0-3.4-18.38,25.6,25.6,0,0,0-9.77-11.78,26.81,26.81,0,0,0-14.58-4,26.26,26.26,0,0,0-10.84,2.19,23.82,23.82,0,0,0-8.58,6.4,30.69,30.69,0,0,0-5.68,10.77,48.72,48.72,0,0,0-2.1,14.72,50,50,0,0,0,2.06,14.89,30.36,30.36,0,0,0,5.84,11,24.52,24.52,0,0,0,8.69,6.57,25.93,25.93,0,0,0,34.6-13.12Q755.21,165.38,755.23,153.91Z"/><path class="cls-1" d="M556.16,239.21,518,239.15l-4.62,26q11.42-6.09,21.05-6.08a35.88,35.88,0,0,1,14.4,2.92,36.8,36.8,0,0,1,19.69,20.1,38.85,38.85,0,0,1,2.86,15,43.48,43.48,0,0,1-5.25,21.19,38.57,38.57,0,0,1-15.07,15.15,44.94,44.94,0,0,1-22.7,5.58q-14.37,0-23.31-5.33T492.4,321.52c-2.48-4.57-3.72-8.58-3.71-12a9.26,9.26,0,0,1,9.16-8.74q6.75,0,10,7.8a27.17,27.17,0,0,0,8.65,11.14,20.3,20.3,0,0,0,12.2,4,18.62,18.62,0,0,0,10.84-3.2,20.73,20.73,0,0,0,7.2-8.82,30.82,30.82,0,0,0,2.55-12.76,29.06,29.06,0,0,0-2.71-13.17,18.94,18.94,0,0,0-7.29-8.16,19.79,19.79,0,0,0-10.19-2.71c-4.61,0-7.9.55-9.88,1.67a89.76,89.76,0,0,0-8.56,5.89q-5.6,4.21-9.2,4.2a9.9,9.9,0,0,1-7-2.86,8.62,8.62,0,0,1-3-6.46c0-.27.29-2.09.89-5.46l6.8-38.45q1.14-6.9,4.19-10t10-3.12l42.39.07q12.52,0,12.51,9.57a8.36,8.36,0,0,1-3.06,6.74Q562.11,239.22,556.16,239.21Z"/><path class="cls-1" d="M665.32,279.52a139.58,139.58,0,0,1-1.64,22.64,52.66,52.66,0,0,1-6,17.17,39.48,39.48,0,0,1-14.16,14.59,38.37,38.37,0,0,1-41.14-1.83A42,42,0,0,1,587.87,313a70,70,0,0,1-3.63-14.74,122.12,122.12,0,0,1-1.14-17.46,166.81,166.81,0,0,1,1.32-21.84,71.51,71.51,0,0,1,4-16.69q4.75-11.56,13.79-17.6t21.57-6a40,40,0,0,1,15,2.71,34.31,34.31,0,0,1,11.83,7.89A44.93,44.93,0,0,1,659.27,242Q665.36,255.27,665.32,279.52Zm-22-1.64a134,134,0,0,0-1.73-24q-1.76-9.36-5.92-14.14t-11.55-4.8q-10.61,0-14.75,10.66t-4.19,32.91a141.69,141.69,0,0,0,1.73,24.73q1.76,9.65,5.92,14.59a14.08,14.08,0,0,0,11.31,5q7.4,0,11.57-5.12t5.88-14.68A149.42,149.42,0,0,0,643.32,277.88Z"/><path class="cls-1" d="M562.36,439.26a27.93,27.93,0,0,1-4.47,15.49,29.47,29.47,0,0,1-13,10.74q-8.57,3.88-20.3,3.86-14.09,0-23.21-5.35a30.83,30.83,0,0,1-10.52-10.23,23.19,23.19,0,0,1-4-12.42,8.44,8.44,0,0,1,8.64-8.49,7.35,7.35,0,0,1,5.15,2,15.46,15.46,0,0,1,3.6,5.77,38.27,38.27,0,0,0,3.9,7.6,15.9,15.9,0,0,0,5.93,5,21.89,21.89,0,0,0,10.05,2c5.71,0,10.34-1.32,13.92-4s5.36-6,5.36-9.95a10.53,10.53,0,0,0-2.87-7.69A18.79,18.79,0,0,0,533,429.1a124.64,124.64,0,0,0-12.22-3.33,90.2,90.2,0,0,1-17.15-5.63,27.71,27.71,0,0,1-10.94-8.78q-4.05-5.55-4-13.78a23.62,23.62,0,0,1,4.3-13.94,26.93,26.93,0,0,1,12.4-9.35A50.63,50.63,0,0,1,524.46,371a47.09,47.09,0,0,1,15.14,2.2A32.06,32.06,0,0,1,550.19,379a24,24,0,0,1,6.15,7.56,17.37,17.37,0,0,1,1.93,7.72,9.07,9.07,0,0,1-2.44,6.19,7.75,7.75,0,0,1-6.07,2.75,7,7,0,0,1-5-1.67,22.3,22.3,0,0,1-3.72-5.41,24.48,24.48,0,0,0-6.21-8.41q-3.63-3-11.67-3-7.46,0-12,3.26c-3.06,2.18-4.58,4.8-4.59,7.87a7.94,7.94,0,0,0,1.55,4.93,13.1,13.1,0,0,0,4.28,3.58,28.13,28.13,0,0,0,5.5,2.34c1.86.57,4.93,1.39,9.21,2.48a143.63,143.63,0,0,1,14.55,4.17,44.08,44.08,0,0,1,11.08,5.53,22.66,22.66,0,0,1,7.12,8.22A26.35,26.35,0,0,1,562.36,439.26Z"/><path class="cls-1" d="M639.16,387.69l-43.38-.07,0,23.35,40,.06c2.94,0,5.13.67,6.58,2a6.71,6.71,0,0,1,2.16,5.22,7,7,0,0,1-2.15,5.28c-1.42,1.36-3.63,2-6.61,2l-39.95-.07,0,27.05,44.87.07q4.55,0,6.84,2.12a7.24,7.24,0,0,1,2.3,5.61,7.11,7.11,0,0,1-2.31,5.47c-1.54,1.41-3.83,2.11-6.85,2.1l-52.33-.08c-4.2,0-7.21-.94-9-2.8s-2.75-4.87-2.75-9l.11-71.46a16.2,16.2,0,0,1,1.24-6.78,7.7,7.7,0,0,1,3.87-3.82,16.23,16.23,0,0,1,6.71-1.19l50.84.08q4.61,0,6.84,2.05a7.6,7.6,0,0,1,0,10.77C644.51,387,642.23,387.69,639.16,387.69Z"/><path class="cls-1" d="M663.52,457.83l.11-74.9q0-5.83,2.67-8.75a8.91,8.91,0,0,1,6.88-2.91,9.17,9.17,0,0,1,7,2.9c1.79,1.92,2.69,4.86,2.68,8.79l-.11,74.9q0,5.89-2.71,8.81a9.08,9.08,0,0,1-7,2.91,8.84,8.84,0,0,1-6.84-3Q663.5,463.67,663.52,457.83Z"/><path class="cls-1" d="M774.32,439.58a27.91,27.91,0,0,1-4.47,15.49,29.56,29.56,0,0,1-13,10.75q-8.57,3.89-20.3,3.86-14.07,0-23.21-5.35A30.92,30.92,0,0,1,702.8,454.1a23.25,23.25,0,0,1-4-12.43,8.44,8.44,0,0,1,8.64-8.48,7.29,7.29,0,0,1,5.15,1.95,15.38,15.38,0,0,1,3.6,5.78,37.63,37.63,0,0,0,3.91,7.59,15.88,15.88,0,0,0,5.92,5,22,22,0,0,0,10,2q8.57,0,13.92-4t5.36-9.94a10.5,10.5,0,0,0-2.87-7.69,18.62,18.62,0,0,0-7.45-4.52q-4.57-1.56-12.22-3.32a89.46,89.46,0,0,1-17.15-5.64,27.69,27.69,0,0,1-10.94-8.77q-4-5.55-4-13.79A23.62,23.62,0,0,1,705,384a27,27,0,0,1,12.4-9.35,50.84,50.84,0,0,1,19.07-3.24,47.38,47.38,0,0,1,15.14,2.19,32.24,32.24,0,0,1,10.59,5.79,24.18,24.18,0,0,1,6.15,7.56,17.4,17.4,0,0,1,1.93,7.72,9.05,9.05,0,0,1-2.44,6.19,7.72,7.72,0,0,1-6.07,2.75,6.93,6.93,0,0,1-5-1.66,22.4,22.4,0,0,1-3.72-5.42,24.55,24.55,0,0,0-6.21-8.41q-3.63-3-11.67-3-7.46,0-12,3.26c-3.06,2.17-4.58,4.8-4.59,7.87a8,8,0,0,0,1.55,4.93,13.2,13.2,0,0,0,4.28,3.57,28.13,28.13,0,0,0,5.5,2.34q2.79.86,9.21,2.48a146.17,146.17,0,0,1,14.55,4.18,44.41,44.41,0,0,1,11.08,5.52,22.64,22.64,0,0,1,7.12,8.22A26.38,26.38,0,0,1,774.32,439.58Z"/><path class="cls-2" d="M455.92,472.5H334.68a12.11,12.11,0,0,1-8.59-20.32l20-21.62a2.92,2.92,0,0,0-.4-4.34l-54.33-40.56a21.6,21.6,0,0,1,.24-34.78l53.79-39a5.39,5.39,0,0,0,.33-8.46l-50.89-43.25a19.26,19.26,0,0,1,2.72-31.29l89.64-52.6L324.3,129.31a10.77,10.77,0,0,1,6.4-19.39l125.18-.47a10.54,10.54,0,0,1,.08,21.08l-94.32.36,40.85,30.51a18.82,18.82,0,0,1-1.74,31.3l-90.36,53,48.93,41.59a26.47,26.47,0,0,1-1.6,41.58l-53.79,39a.44.44,0,0,0-.21.41.49.49,0,0,0,.2.42l54.33,40.56a24,24,0,0,1,3.28,35.52l-6.06,6.58H455.92a10.54,10.54,0,0,1,0,21.08Zm-119-360.1,0,0Z"/><path class="cls-1" d="M156.87,208.8l-1.36,134.05a3.71,3.71,0,0,1-5.44,3.24L34.24,284.84a2.61,2.61,0,0,1-.08-4.57l124.33-71.48"/><path class="cls-1" d="M151.81,357.07a14.22,14.22,0,0,1-6.66-1.66L29.31,294.16a13.16,13.16,0,0,1-.41-23l124.34-71.48,5.27,9.16,8.9.09L166.05,343a14.28,14.28,0,0,1-14.24,14.11ZM51.88,282.24l93.2,49.28,1-103.47Z"/><path class="cls-2" d="M455.92,296.37H345.86a10.54,10.54,0,1,1,0-21.08H455.92a10.54,10.54,0,0,1,0,21.08Z"/><line class="cls-1" x1="291.35" y1="128.53" x2="30.06" y2="280.66"/><path class="cls-1" d="M30.07,291.2a10.54,10.54,0,0,1-5.32-19.65l261.3-152.13a10.54,10.54,0,0,1,10.61,18.21L35.36,289.77A10.49,10.49,0,0,1,30.07,291.2Z"/><line class="cls-3" x1="216.29" y1="394.63" x2="329.53" y2="460.55"/><path class="cls-2" d="M329.52,471.1a10.51,10.51,0,0,1-5.29-1.44L211,403.74a10.54,10.54,0,0,1,10.6-18.22l113.24,65.92a10.55,10.55,0,0,1-5.31,19.66Z"/><path class="cls-2" d="M772.32,222.25q-2.15,7.17-4.23,13.89Q759,266.59,751.8,288.43a115.68,115.68,0,0,1,17.52,2.27,1.09,1.09,0,0,1,.73.48,1,1,0,0,1,.12.85,1.09,1.09,0,0,1-.47.66,1.2,1.2,0,0,1-.8.2,110.55,110.55,0,0,0-17.83-2.31,266.49,266.49,0,0,1-12.46,31.61q-6,12.36-12.66,18a19.16,19.16,0,0,1-15.05,4.74l-1-.11h-.12a16,16,0,0,1-10.48-9.37q-3.19-7.2-1.11-16.67,4.06-15.84,20.21-24.34,13-6.56,31.16-6.07,6.4-19.5,14.37-46.09-8,17-15.86,26.92t-14,10.47a7.67,7.67,0,0,1-1-.05,7,7,0,0,1-3-1.16,9.11,9.11,0,0,1-2.9-3.58q-2.6-5.92-1.51-15.1a110.5,110.5,0,0,1,3.91-18.59q2.82-9.42,5.47-16.09t3-7.55a1.46,1.46,0,0,1,.62-.59,1,1,0,0,1,.81,0,1.17,1.17,0,0,1,.62.62,1.2,1.2,0,0,1,0,.87q-.24.41-2.76,6.81T731.9,241a111.92,111.92,0,0,0-4.06,18.32q-1.2,9,1.24,14.6c1.22,2.5,2.86,3.69,4.9,3.58q7-.86,17.11-16.35c6.71-10.33,15.19-22.81,21.23-38.89M710.27,342.7q11.67,1.76,20.47-11.17t18.1-41q-17.24-.31-29.45,5.82-15.23,8.1-19.08,23-1.9,8.49.87,15A14.07,14.07,0,0,0,710.27,342.7Z"/><path class="cls-2" d="M713.21,348.23a23.81,23.81,0,0,1-2.65-.15l-1.67-.23a19.11,19.11,0,0,1-12.47-11.12c-2.4-5.41-2.84-11.68-1.31-18.63,3-11.52,10.3-20.38,21.83-26.46,8.5-4.3,18.64-6.46,30.21-6.46h.14q2.54-7.81,5.35-16.77c-.7,1-1.39,1.88-2.09,2.75-5.87,7.43-11.18,11.24-16.23,11.66h-.23a12.25,12.25,0,0,1-1.44-.07,10.14,10.14,0,0,1-4.34-1.64,12,12,0,0,1-4-4.78l-.09-.19c-2-4.46-2.54-10.1-1.75-16.74a114.19,114.19,0,0,1,4-19.12c1.89-6.32,3.76-11.82,5.56-16.35,2.41-6.06,2.93-7.3,3.12-7.71l.12-.25a4.53,4.53,0,0,1,2.07-1.9,4.19,4.19,0,0,1,3.31-.05l.23.1a4.26,4.26,0,0,1,2.16,2.37,4.3,4.3,0,0,1,0,3l-.22.47s-.42,1-2.57,6.41c-1.64,4.17-3.43,9.39-5.32,15.5a110,110,0,0,0-3.95,17.8c-.71,5.4-.37,9.75,1,12.93.85,1.73,1.55,1.69,1.83,1.68,1.87-.23,6.57-2.51,14.63-14.91l1.44-2.21c6.55-10,14-21.45,19.48-36.07l6,2q-2.15,7.17-4.25,13.92c-5.48,18.42-10.53,34.71-15,48.47A123.37,123.37,0,0,1,770,287.6a4.39,4.39,0,0,1,2.74,1.84,4.26,4.26,0,0,1,.56,3.32,4.3,4.3,0,0,1-1.82,2.58,4.37,4.37,0,0,1-2.87.69l-.3,0a112.92,112.92,0,0,0-15-2.11,265.19,265.19,0,0,1-11.84,29.71c-4.2,8.59-8.73,15-13.46,19A22.36,22.36,0,0,1,713.21,348.23ZM711,339.6c6.44.88,12-2.35,17.15-9.85,5.23-7.69,10.71-19.8,16.3-36-9.08.31-17,2.14-23.61,5.45-9.36,5-15.08,11.84-17.44,20.94-1.09,4.87-.86,9.26.71,12.93A11,11,0,0,0,711,339.6Z"/><path class="cls-4" d="M348.44,531.48a29.41,29.41,0,0,1-1.39,9.53,17.41,17.41,0,0,1-4.08,6.76,17,17,0,0,1-6.57,4,29.08,29.08,0,0,1-9.29,1.33h-8.9a2.27,2.27,0,0,1-1.41-.51,2.09,2.09,0,0,1-.67-1.77V513.36a2.11,2.11,0,0,1,.67-1.77,2.31,2.31,0,0,1,1.41-.5h9.52A26.45,26.45,0,0,1,337,512.5a17,17,0,0,1,6.31,4.06,17.39,17.39,0,0,1,3.87,6.42A25.84,25.84,0,0,1,348.44,531.48Zm-5.88.23a23,23,0,0,0-.84-6.35,13.47,13.47,0,0,0-2.65-5.08,12.18,12.18,0,0,0-4.56-3.34,18,18,0,0,0-7.11-1.21h-5.68v32.7h5.75a19.69,19.69,0,0,0,6.78-1,11.2,11.2,0,0,0,4.61-3.08,13.4,13.4,0,0,0,2.78-5.21A26.25,26.25,0,0,0,342.56,531.71Z"/><path class="cls-4" d="M362.63,552.26a.78.78,0,0,1-.13.46.85.85,0,0,1-.45.3,4.39,4.39,0,0,1-.86.2,10,10,0,0,1-1.35.08,9.88,9.88,0,0,1-1.33-.08,4.3,4.3,0,0,1-.88-.2.74.74,0,0,1-.58-.76V511.94a.72.72,0,0,1,.14-.46,1,1,0,0,1,.49-.31,5.7,5.7,0,0,1,.88-.19,7.87,7.87,0,0,1,1.28-.08,8.57,8.57,0,0,1,1.35.08,5.38,5.38,0,0,1,.86.19.92.92,0,0,1,.45.31.78.78,0,0,1,.13.46Z"/><path class="cls-4" d="M396.37,541.32a12.27,12.27,0,0,1-1.09,5.26,11.27,11.27,0,0,1-3,3.91,13.15,13.15,0,0,1-4.55,2.42,18.92,18.92,0,0,1-5.63.81,20.75,20.75,0,0,1-3.91-.35,21.25,21.25,0,0,1-3.22-.88,15.84,15.84,0,0,1-2.37-1.07,6.36,6.36,0,0,1-1.33-.94,2.38,2.38,0,0,1-.55-1,5.81,5.81,0,0,1-.18-1.61,7.92,7.92,0,0,1,.07-1.19,2.71,2.71,0,0,1,.19-.76.84.84,0,0,1,.32-.4.88.88,0,0,1,.46-.12,2.72,2.72,0,0,1,1.28.55,18.86,18.86,0,0,0,2.13,1.2,20.09,20.09,0,0,0,3.13,1.22,14.31,14.31,0,0,0,4.24.57,10.67,10.67,0,0,0,3.33-.49,7.64,7.64,0,0,0,2.59-1.38,5.85,5.85,0,0,0,1.68-2.19,7.09,7.09,0,0,0,.58-2.95,5.59,5.59,0,0,0-.81-3.06,8.33,8.33,0,0,0-2.14-2.22,18.66,18.66,0,0,0-3-1.75L381,533.28a37,37,0,0,1-3.47-1.83,14.38,14.38,0,0,1-3-2.37,11,11,0,0,1-2.16-3.2,10.5,10.5,0,0,1-.83-4.4,11,11,0,0,1,1-4.69,9.59,9.59,0,0,1,2.66-3.46,12,12,0,0,1,4.06-2.13,17.28,17.28,0,0,1,5.08-.73,16.77,16.77,0,0,1,2.81.25,18.81,18.81,0,0,1,2.66.65,14,14,0,0,1,2.22.91,5.6,5.6,0,0,1,1.29.81,2.24,2.24,0,0,1,.4.49,1.47,1.47,0,0,1,.16.45,3.67,3.67,0,0,1,.1.67c0,.25,0,.59,0,1s0,.74-.05,1a5.1,5.1,0,0,1-.15.76.91.91,0,0,1-.28.46.59.59,0,0,1-.4.14,2.63,2.63,0,0,1-1.12-.45c-.51-.3-1.13-.64-1.87-1a15.92,15.92,0,0,0-2.61-1,11.22,11.22,0,0,0-3.4-.47,8.85,8.85,0,0,0-3.05.47,6.2,6.2,0,0,0-2.14,1.25,4.94,4.94,0,0,0-1.27,1.85,6.14,6.14,0,0,0-.42,2.27,5.47,5.47,0,0,0,.81,3,8.18,8.18,0,0,0,2.16,2.24,19.07,19.07,0,0,0,3.07,1.79l3.51,1.64c1.19.55,2.36,1.16,3.5,1.82a14.87,14.87,0,0,1,3.07,2.33,10.56,10.56,0,0,1,2.18,3.19A10.45,10.45,0,0,1,396.37,541.32Z"/><path class="cls-4" d="M427.73,550.8a7.57,7.57,0,0,1-.06,1,2.16,2.16,0,0,1-.23.73,1.15,1.15,0,0,1-.37.43,1,1,0,0,1-.47.13H406.43a2.27,2.27,0,0,1-1.41-.51,2.09,2.09,0,0,1-.67-1.77V513.36a2.11,2.11,0,0,1,.67-1.77,2.31,2.31,0,0,1,1.41-.5h19.94a.85.85,0,0,1,.47.13,1,1,0,0,1,.34.42,3,3,0,0,1,.21.73,6.67,6.67,0,0,1,.08,1.09,6,6,0,0,1-.08,1,2.7,2.7,0,0,1-.21.72.91.91,0,0,1-.34.4.85.85,0,0,1-.47.13H409.94v13.19H424a.86.86,0,0,1,.47.14,1.31,1.31,0,0,1,.36.41,1.93,1.93,0,0,1,.21.71,8.38,8.38,0,0,1,.06,1.07,7.31,7.31,0,0,1-.06,1,1.88,1.88,0,0,1-.21.68,1,1,0,0,1-.36.38,1,1,0,0,1-.47.11H409.94v15H426.6a1,1,0,0,1,.47.13,1.15,1.15,0,0,1,.37.41,2,2,0,0,1,.23.71A8.38,8.38,0,0,1,427.73,550.8Z"/><path class="cls-4" d="M468.58,550.8a2.68,2.68,0,0,1-.22,1.11,2.25,2.25,0,0,1-.57.74,2.09,2.09,0,0,1-.79.42,2.91,2.91,0,0,1-.87.13h-1.85a5.84,5.84,0,0,1-1.53-.18,3.27,3.27,0,0,1-1.24-.64,6.86,6.86,0,0,1-1.18-1.29,16.1,16.1,0,0,1-1.24-2.07l-12.82-23.9c-.67-1.24-1.35-2.53-2-3.88s-1.31-2.67-1.9-4h-.06c0,1.56.07,3.15.09,4.78s0,3.23,0,4.83v25.36a.82.82,0,0,1-.14.44.85.85,0,0,1-.46.32,4.39,4.39,0,0,1-.86.2,9.77,9.77,0,0,1-1.35.08,10,10,0,0,1-1.36-.08,4,4,0,0,1-.84-.2.83.83,0,0,1-.44-.32.82.82,0,0,1-.14-.44V513.49a2.18,2.18,0,0,1,.74-1.85,2.68,2.68,0,0,1,1.61-.55h2.75a7.31,7.31,0,0,1,1.62.16,3.31,3.31,0,0,1,1.17.54,4.57,4.57,0,0,1,1,1,14.8,14.8,0,0,1,1,1.67l9.85,18.44c.61,1.13,1.2,2.23,1.76,3.3s1.11,2.13,1.63,3.16,1,2.07,1.56,3.07,1,2,1.52,3h0c0-1.71-.07-3.49-.08-5.34s0-3.63,0-5.34V512a.73.73,0,0,1,.14-.42,1.08,1.08,0,0,1,.46-.34,2.84,2.84,0,0,1,.86-.21,12.35,12.35,0,0,1,1.39-.07,12,12,0,0,1,1.3.07,2.62,2.62,0,0,1,.85.21,1.11,1.11,0,0,1,.45.34.73.73,0,0,1,.14.42Zm-8.74-50.1a.57.57,0,0,1,.46-.57,6.1,6.1,0,0,1,1.56-.14,3.11,3.11,0,0,1,1.52.24q.36.24.36,1a6.59,6.59,0,0,1-1.67,4.76,6.26,6.26,0,0,1-4.73,1.74,7,7,0,0,1-3-.59,16.12,16.12,0,0,1-2.33-1.28c-.7-.46-1.36-.89-2-1.26a3.66,3.66,0,0,0-2-.57,2.16,2.16,0,0,0-1.92.81,3.79,3.79,0,0,0-.55,2.17.54.54,0,0,1-.14.38,1.07,1.07,0,0,1-.41.23,2.72,2.72,0,0,1-.63.09l-.83,0a3,3,0,0,1-1.53-.26,1.21,1.21,0,0,1-.35-1,8,8,0,0,1,.45-2.78,5.34,5.34,0,0,1,1.3-2,5.6,5.6,0,0,1,2-1.25,7.3,7.3,0,0,1,2.61-.44,7.09,7.09,0,0,1,3,.58,17.21,17.21,0,0,1,2.3,1.27l2,1.26a3.68,3.68,0,0,0,2,.59,2.43,2.43,0,0,0,1.8-.67A3.25,3.25,0,0,0,459.84,500.7Z"/><path class="cls-4" d="M514.94,531.61a32.63,32.63,0,0,1-1.2,9.19,19.12,19.12,0,0,1-3.59,7,15.66,15.66,0,0,1-6,4.41,21.18,21.18,0,0,1-8.41,1.54,21.59,21.59,0,0,1-8.19-1.41,14.34,14.34,0,0,1-5.72-4.11,17.56,17.56,0,0,1-3.36-6.69,34.38,34.38,0,0,1-1.1-9.18,31.78,31.78,0,0,1,1.2-9,18.73,18.73,0,0,1,3.6-6.9,16,16,0,0,1,6-4.38,21.18,21.18,0,0,1,8.41-1.55,21.42,21.42,0,0,1,8.08,1.4,14.6,14.6,0,0,1,5.73,4.07,17.23,17.23,0,0,1,3.41,6.63A33,33,0,0,1,514.94,531.61ZM509,532a33.05,33.05,0,0,0-.63-6.64,15.09,15.09,0,0,0-2.11-5.32,10.11,10.11,0,0,0-3.94-3.53,13.27,13.27,0,0,0-6.09-1.26,12.45,12.45,0,0,0-6.1,1.36,11.39,11.39,0,0,0-4,3.64,14.93,14.93,0,0,0-2.21,5.31,29.93,29.93,0,0,0-.66,6.38,35.37,35.37,0,0,0,.61,6.82,15.18,15.18,0,0,0,2.08,5.37,10,10,0,0,0,3.91,3.51,13.48,13.48,0,0,0,6.14,1.24,12.7,12.7,0,0,0,6.16-1.36,11,11,0,0,0,4-3.68,15.48,15.48,0,0,0,2.17-5.38A30.5,30.5,0,0,0,509,532Z"/><path class="cls-4" d="M570.37,516.81a6.91,6.91,0,0,1-.07,1.08,3.17,3.17,0,0,1-.19.78,1,1,0,0,1-.33.44.72.72,0,0,1-.42.13,3,3,0,0,1-1.3-.62,20.19,20.19,0,0,0-2.43-1.36A22.88,22.88,0,0,0,562,515.9a18.35,18.35,0,0,0-5.05-.62,14.71,14.71,0,0,0-6.24,1.27,13.33,13.33,0,0,0-4.67,3.5,15.66,15.66,0,0,0-2.94,5.33,22.89,22.89,0,0,0,.1,13.83,15.12,15.12,0,0,0,3.1,5.26,12.93,12.93,0,0,0,4.72,3.25,16.12,16.12,0,0,0,6,1.1,17.39,17.39,0,0,0,4-.47,14.6,14.6,0,0,0,3.72-1.41V534.7H555a.89.89,0,0,1-.83-.56,3.91,3.91,0,0,1-.28-1.72,6.35,6.35,0,0,1,.07-1,2.19,2.19,0,0,1,.21-.72,1.14,1.14,0,0,1,.34-.4.83.83,0,0,1,.49-.13h13.34a1.94,1.94,0,0,1,.71.13,1.88,1.88,0,0,1,.65.39,1.65,1.65,0,0,1,.46.71,3.07,3.07,0,0,1,.16,1v16a3.46,3.46,0,0,1-.29,1.46,2.63,2.63,0,0,1-1.23,1.09,26.42,26.42,0,0,1-2.44,1,28.19,28.19,0,0,1-3.08.94,27.57,27.57,0,0,1-3.22.59,26.83,26.83,0,0,1-3.21.19,23.57,23.57,0,0,1-8.71-1.51,17.78,17.78,0,0,1-6.47-4.3,18.85,18.85,0,0,1-4-6.69,27.93,27.93,0,0,1,.12-17.76,19.73,19.73,0,0,1,4.25-6.92,19.09,19.09,0,0,1,6.59-4.43,22.34,22.34,0,0,1,8.53-1.57,23.11,23.11,0,0,1,4.51.42,28.06,28.06,0,0,1,3.75,1,15.71,15.71,0,0,1,2.76,1.23,8.64,8.64,0,0,1,1.54,1.09,2.31,2.31,0,0,1,.59,1A6.25,6.25,0,0,1,570.37,516.81Z"/><path class="cls-4" d="M608.78,552.26a1,1,0,0,1-.1.46.73.73,0,0,1-.42.32,3.78,3.78,0,0,1-.91.2q-.58.06-1.56.06a12.93,12.93,0,0,1-1.38-.06,3.24,3.24,0,0,1-.86-.22,1.17,1.17,0,0,1-.5-.4,2.63,2.63,0,0,1-.31-.65l-3.86-9.9c-.46-1.13-.93-2.16-1.42-3.1a9.64,9.64,0,0,0-1.73-2.44,7.16,7.16,0,0,0-2.37-1.59,8.52,8.52,0,0,0-3.28-.57h-3.74v17.89a.78.78,0,0,1-.14.46.93.93,0,0,1-.46.3,3.7,3.7,0,0,1-.84.2,11.43,11.43,0,0,1-2.7,0,4.39,4.39,0,0,1-.86-.2.81.81,0,0,1-.45-.3.78.78,0,0,1-.13-.46v-38.9a2.11,2.11,0,0,1,.66-1.77,2.36,2.36,0,0,1,1.42-.5h8.93c1.06,0,1.94,0,2.64.08l1.9.18a16.2,16.2,0,0,1,4.3,1.33,10.32,10.32,0,0,1,3.14,2.31,9.41,9.41,0,0,1,1.9,3.2,11.94,11.94,0,0,1,.63,4,11.74,11.74,0,0,1-.57,3.79,9,9,0,0,1-1.64,2.95,10.56,10.56,0,0,1-2.56,2.22,16.75,16.75,0,0,1-3.35,1.6,7.65,7.65,0,0,1,1.88,1.15,9.37,9.37,0,0,1,1.58,1.67,15.31,15.31,0,0,1,1.38,2.24c.43.85.87,1.8,1.3,2.86l3.77,9.25c.3.78.49,1.33.58,1.64A2.87,2.87,0,0,1,608.78,552.26Zm-8.41-29.51a7.59,7.59,0,0,0-1.1-4.18,6.28,6.28,0,0,0-3.71-2.45,10.2,10.2,0,0,0-1.83-.32c-.68-.07-1.58-.1-2.68-.1h-4.71v14.16h5.46a12,12,0,0,0,3.81-.54,7.3,7.3,0,0,0,2.68-1.49,5.8,5.8,0,0,0,1.58-2.26A7.85,7.85,0,0,0,600.37,522.75Z"/><path class="cls-4" d="M648.33,551.13a4,4,0,0,1,.27,1.15.79.79,0,0,1-.24.66,1.54,1.54,0,0,1-.86.3c-.4,0-.94.06-1.61.06s-1.21,0-1.61,0a3.24,3.24,0,0,1-.9-.16,1,1,0,0,1-.46-.31,2.44,2.44,0,0,1-.28-.49L639,542.07H621.57l-3.44,10.09a1.53,1.53,0,0,1-.26.51,1.16,1.16,0,0,1-.47.35,3,3,0,0,1-.88.22,14.57,14.57,0,0,1-1.47.06,12.85,12.85,0,0,1-1.55-.08,1.51,1.51,0,0,1-.84-.31.82.82,0,0,1-.23-.66,3.81,3.81,0,0,1,.28-1.16l14.09-39a1.76,1.76,0,0,1,.34-.59,1.47,1.47,0,0,1,.62-.36,4.88,4.88,0,0,1,1-.17c.42,0,1-.05,1.6-.05s1.27,0,1.72.05a5.43,5.43,0,0,1,1.11.17,1.42,1.42,0,0,1,.65.38,1.61,1.61,0,0,1,.35.6Zm-18.09-34.45h0L623,537.62h14.61Zm3.9-17.18a3.44,3.44,0,0,1,.7-.65,3,3,0,0,1,.76-.36,6,6,0,0,1,1-.18c.38,0,.85,0,1.39,0a6.2,6.2,0,0,1,1.53.14,1.71,1.71,0,0,1,.78.38.48.48,0,0,1,.14.51,1.52,1.52,0,0,1-.37.62l-7.37,6.89a4.65,4.65,0,0,1-.6.5,2.89,2.89,0,0,1-.64.29,3.61,3.61,0,0,1-.82.16,9.7,9.7,0,0,1-1.16.05,6,6,0,0,1-1.16-.08,1,1,0,0,1-.59-.26.45.45,0,0,1-.1-.44,1.84,1.84,0,0,1,.36-.61Z"/><path class="cls-4" d="M677.42,513.49a6.82,6.82,0,0,1-.07,1.08,2.17,2.17,0,0,1-.22.73,1.13,1.13,0,0,1-.38.4.77.77,0,0,1-.43.13h-15.4v14.29h14.55a1,1,0,0,1,.44.11,1.09,1.09,0,0,1,.37.37,1.8,1.8,0,0,1,.23.7,8.67,8.67,0,0,1,.06,1.12,8,8,0,0,1-.06,1.06,1.85,1.85,0,0,1-.23.71,1.33,1.33,0,0,1-.37.43.82.82,0,0,1-.44.14H660.92v17.5a.8.8,0,0,1-.13.44.75.75,0,0,1-.45.32,4.33,4.33,0,0,1-.84.2,11.43,11.43,0,0,1-2.7,0,4.3,4.3,0,0,1-.88-.2.82.82,0,0,1-.45-.32.8.8,0,0,1-.13-.44v-38.9a2.08,2.08,0,0,1,.67-1.77,2.31,2.31,0,0,1,1.41-.5h18.9a.77.77,0,0,1,.43.13,1.21,1.21,0,0,1,.38.42,2.36,2.36,0,0,1,.22.77A6.91,6.91,0,0,1,677.42,513.49Z"/><path class="cls-4" d="M691.48,552.26a.78.78,0,0,1-.13.46.84.84,0,0,1-.46.3,4.07,4.07,0,0,1-.86.2,9.71,9.71,0,0,1-1.34.08,10.15,10.15,0,0,1-1.34-.08,4.18,4.18,0,0,1-.87-.2.84.84,0,0,1-.46-.3.86.86,0,0,1-.13-.46V511.94a.73.73,0,0,1,.15-.46,1,1,0,0,1,.49-.31,5.54,5.54,0,0,1,.87-.19,8.09,8.09,0,0,1,1.29-.08A8.36,8.36,0,0,1,690,511a4.92,4.92,0,0,1,.86.19.91.91,0,0,1,.46.31.78.78,0,0,1,.13.46Z"/><path class="cls-4" d="M730.7,547.16c0,.35,0,.65,0,.91a3.29,3.29,0,0,1-.12.69,2.18,2.18,0,0,1-.21.52,2.94,2.94,0,0,1-.45.55,10.82,10.82,0,0,1-1.36,1,17.76,17.76,0,0,1-2.59,1.3,21.14,21.14,0,0,1-3.53,1.07,20.6,20.6,0,0,1-4.37.44,19.16,19.16,0,0,1-7.39-1.37,15,15,0,0,1-5.62-4,18.48,18.48,0,0,1-3.57-6.58,33,33,0,0,1,.1-18.33,20.25,20.25,0,0,1,3.78-6.93,16.21,16.21,0,0,1,5.83-4.33,18.39,18.39,0,0,1,7.52-1.5,18,18,0,0,1,3.54.34,24.46,24.46,0,0,1,3.18.86A15.3,15.3,0,0,1,728,513a9.33,9.33,0,0,1,1.57,1.12,4.49,4.49,0,0,1,.57.67,1.9,1.9,0,0,1,.21.54,5.41,5.41,0,0,1,.13.73,9.37,9.37,0,0,1,0,1,7.06,7.06,0,0,1-.07,1.11,3.37,3.37,0,0,1-.19.76,1.08,1.08,0,0,1-.31.45.67.67,0,0,1-.44.15,2.45,2.45,0,0,1-1.28-.63,20.53,20.53,0,0,0-2.1-1.4,16.91,16.91,0,0,0-3.14-1.39,13.44,13.44,0,0,0-4.42-.64,11.64,11.64,0,0,0-5.11,1.12,10.87,10.87,0,0,0-3.93,3.3,16.17,16.17,0,0,0-2.53,5.31,29,29,0,0,0,0,14.22,14.6,14.6,0,0,0,2.48,5.13,10.46,10.46,0,0,0,4,3.12,12.92,12.92,0,0,0,5.32,1.05,14.09,14.09,0,0,0,4.39-.62,17,17,0,0,0,3.2-1.38,25,25,0,0,0,2.17-1.38,2.63,2.63,0,0,1,1.34-.61.78.78,0,0,1,.39.09.72.72,0,0,1,.27.38,3.58,3.58,0,0,1,.14.76C730.68,546.25,730.7,546.67,730.7,547.16Z"/><path class="cls-4" d="M772.72,531.61a32.63,32.63,0,0,1-1.2,9.19,19.43,19.43,0,0,1-3.59,7,15.73,15.73,0,0,1-6,4.41,21.25,21.25,0,0,1-8.41,1.54,21.64,21.64,0,0,1-8.2-1.41,14.41,14.41,0,0,1-5.72-4.11,17.56,17.56,0,0,1-3.36-6.69,34.79,34.79,0,0,1-1.1-9.18,31.78,31.78,0,0,1,1.2-9,18.73,18.73,0,0,1,3.6-6.9,16.1,16.1,0,0,1,6-4.38,21.21,21.21,0,0,1,8.41-1.55,21.47,21.47,0,0,1,8.09,1.4,14.74,14.74,0,0,1,5.73,4.07,17.51,17.51,0,0,1,3.41,6.63A33.42,33.42,0,0,1,772.72,531.61Zm-5.91.39a32.32,32.32,0,0,0-.64-6.64,15.27,15.27,0,0,0-2.1-5.32,10.25,10.25,0,0,0-3.94-3.53,13.34,13.34,0,0,0-6.1-1.26,12.48,12.48,0,0,0-6.1,1.36,11.48,11.48,0,0,0-4,3.64,15.12,15.12,0,0,0-2.21,5.31,29.93,29.93,0,0,0-.66,6.38,35.37,35.37,0,0,0,.61,6.82,15.56,15.56,0,0,0,2.08,5.37,10,10,0,0,0,3.91,3.51,13.48,13.48,0,0,0,6.14,1.24,12.67,12.67,0,0,0,6.16-1.36,11.16,11.16,0,0,0,4-3.68,15.68,15.68,0,0,0,2.17-5.38A31.17,31.17,0,0,0,766.81,532Z"/></svg>