<?xml version="1.0" encoding="utf-8"?>
<!-- Generator: Adobe Illustrator 22.0.0, SVG Export Plug-In . SVG Version: 6.00 Build 0)  -->
<svg version="1.1" id="Capa_1" xmlns="http://www.w3.org/2000/svg" xmlns:xlink="http://www.w3.org/1999/xlink" x="0px" y="0px"
	 viewBox="0 0 792 612" style="enable-background:new 0 0 792 612;" xml:space="preserve">
<style type="text/css">
	.st0{fill:#649BA9;}
	.st1{fill:#D7C28A;}
</style>
<g>
	<g>
		<circle class="st0" cx="398.9" cy="301" r="161"/>
	</g>
	<g>
		<path class="st1" d="M430.1,414.5h-62.4c-45.4,0-82.3-36.9-82.3-82.3v-62.4c0-45.4,36.9-82.3,82.3-82.3h62.4
			c45.4,0,82.3,36.9,82.3,82.3v62.4C512.4,377.6,475.5,414.5,430.1,414.5z M367.7,201.2c-37.9,0-68.6,30.8-68.6,68.7v62.4
			c0,37.9,30.8,68.6,68.6,68.6h62.4c37.9,0,68.7-30.8,68.7-68.6v-62.4c0-37.9-30.8-68.7-68.7-68.7H367.7z"/>
	</g>
	<g>
		<circle class="st1" cx="396.1" cy="301.8" r="57.3"/>
	</g>
	<g>
		<circle class="st1" cx="453.4" cy="240.9" r="13.2"/>
	</g>
	<g>
		<circle class="st0" cx="396.1" cy="301.8" r="40.9"/>
	</g>
</g>
</svg>
